#define book_width 64
#define book_height 64
static unsigned char book_bits[] = {
   0x00, 0x00, 0x00, 0x00, 0x00, 0x00, 0x00, 0x00, 0x00, 0x00, 0x00, 0x00,
   0x00, 0x00, 0x00, 0x00, 0x00, 0x80, 0xff, 0xff, 0xff, 0xff, 0x01, 0x00,
   0x00, 0xe0, 0xff, 0xff, 0xff, 0xff, 0x07, 0x00, 0x00, 0xf0, 0x01, 0x00,
   0x00, 0xc0, 0x3f, 0x00, 0x00, 0x78, 0x00, 0x00, 0x00, 0x00, 0xfe, 0x00,
   0x00, 0x38, 0x00, 0x00, 0x00, 0x00, 0xfc, 0x01, 0x00, 0x1c, 0x00, 0x00,
   0x00, 0x00, 0xf8, 0x03, 0x00, 0x1c, 0x00, 0x00, 0x00, 0x00, 0xb8, 0x03,
   0x00, 0x0c, 0x00, 0x00, 0x00, 0x00, 0x70, 0x07, 0x00, 0x0c, 0x00, 0x00,
   0x00, 0x00, 0xf0, 0x07, 0x00, 0x8c, 0xff, 0xff, 0xff, 0xff, 0xb1, 0x06,
   0x00, 0x8c, 0x00, 0x00, 0x00, 0x00, 0xb1, 0x06, 0x00, 0x8c, 0x00, 0x00,
   0x00, 0x00, 0xb1, 0x06, 0x00, 0x8c, 0x00, 0x00, 0x00, 0x00, 0xb1, 0x06,
   0x00, 0x8c, 0x00, 0x00, 0x00, 0x00, 0xb1, 0x06, 0x00, 0x8c, 0xfc, 0xff,
   0xff, 0x3f, 0xb1, 0x06, 0x00, 0x8c, 0x00, 0x00, 0x00, 0x00, 0xb1, 0x06,
   0x00, 0x8c, 0x00, 0x00, 0x00, 0x00, 0xb1, 0x06, 0x00, 0x8c, 0x00, 0x00,
   0x00, 0x00, 0xb1, 0x06, 0x00, 0x8c, 0xfc, 0xff, 0xff, 0x3f, 0xb1, 0x06,
   0x00, 0x8c, 0x00, 0x00, 0x00, 0x00, 0xb1, 0x06, 0x00, 0x8c, 0x00, 0x00,
   0x00, 0x00, 0xb1, 0x06, 0x00, 0x8c, 0x00, 0x00, 0x00, 0x00, 0xb1, 0x06,
   0x00, 0x8c, 0xfc, 0xff, 0xff, 0x3f, 0xb1, 0x06, 0x00, 0x8c, 0x00, 0x00,
   0x00, 0x00, 0xb1, 0x06, 0x00, 0x8c, 0x00, 0x00, 0x00, 0x00, 0xb1, 0x06,
   0x00, 0x8c, 0x00, 0x00, 0x00, 0x00, 0xb1, 0x06, 0x00, 0x8c, 0xff, 0xff,
   0xff, 0xff, 0xb1, 0x06, 0x00, 0x0c, 0x00, 0x00, 0x00, 0x00, 0xb0, 0x06,
   0x00, 0x0c, 0x00, 0x00, 0x00, 0x00, 0xb0, 0x06, 0x00, 0x0c, 0x00, 0x00,
   0x00, 0x00, 0xb0, 0x06, 0x00, 0x0c, 0x00, 0x00, 0x00, 0x00, 0xb0, 0x06,
   0x00, 0x0c, 0x00, 0x00, 0x00, 0x00, 0xb0, 0x06, 0x00, 0x0c, 0x00, 0x00,
   0x00, 0x00, 0xb0, 0x06, 0x00, 0x0c, 0x00, 0x00, 0x00, 0x00, 0xb0, 0x06,
   0x00, 0x0c, 0x00, 0x00, 0x00, 0x00, 0xb0, 0x06, 0x00, 0x0c, 0x00, 0x00,
   0x00, 0x00, 0xb0, 0x06, 0x00, 0x0c, 0x00, 0x00, 0x00, 0x00, 0xb0, 0x06,
   0x00, 0x0c, 0x00, 0x00, 0x00, 0x00, 0xb0, 0x06, 0x00, 0x0c, 0x00, 0x00,
   0x00, 0x00, 0xb0, 0x06, 0x00, 0x0c, 0x00, 0x00, 0x00, 0x00, 0xb0, 0x06,
   0x00, 0x0c, 0x00, 0x00, 0x00, 0x00, 0xb0, 0x06, 0x00, 0x0c, 0x00, 0x00,
   0x00, 0x00, 0xb0, 0x06, 0x00, 0x0c, 0x00, 0x00, 0x00, 0x00, 0xb0, 0x06,
   0x00, 0x0c, 0x00, 0x00, 0x00, 0x00, 0xb0, 0x06, 0x00, 0x0c, 0x00, 0x00,
   0x00, 0x00, 0xb0, 0x06, 0x00, 0x0c, 0x00, 0x00, 0x00, 0x00, 0xb0, 0x06,
   0x00, 0x0c, 0x00, 0x00, 0x00, 0x00, 0xb0, 0x06, 0x00, 0x0c, 0x00, 0x00,
   0x00, 0x00, 0xb0, 0x06, 0x00, 0x0c, 0x00, 0x00, 0x00, 0x00, 0xb0, 0x06,
   0x00, 0x0c, 0x00, 0x00, 0x00, 0x00, 0xb0, 0x06, 0x00, 0x0c, 0x00, 0x00,
   0x00, 0x00, 0xb0, 0x06, 0x00, 0x0c, 0x00, 0x00, 0x00, 0x00, 0xb0, 0x06,
   0x00, 0x0c, 0x00, 0x00, 0x00, 0x00, 0xb0, 0x06, 0x00, 0x1c, 0x00, 0x00,
   0x00, 0x00, 0xb8, 0x06, 0x00, 0x1c, 0x00, 0x00, 0x00, 0x00, 0xb8, 0x06,
   0x00, 0x38, 0x00, 0x00, 0x00, 0x00, 0x5c, 0x07, 0x00, 0x78, 0x00, 0x00,
   0x00, 0x00, 0x5e, 0x07, 0x00, 0xf0, 0x01, 0x00, 0x00, 0x80, 0xaf, 0x03,
   0x00, 0xe0, 0xff, 0xff, 0xff, 0xff, 0xd7, 0x03, 0x00, 0x80, 0xff, 0xff,
   0xff, 0xff, 0xf9, 0x01, 0x00, 0x00, 0xfc, 0xff, 0xff, 0xff, 0xff, 0x00,
   0x00, 0x00, 0xf0, 0xff, 0xff, 0xff, 0x3f, 0x00 };
