#define pencil_width 64
#define pencil_height 64
static unsigned short pencil_bits[] = {
   0x0000, 0x0000, 0x0000, 0x0000, 0x0000, 0x0000, 0x0000, 0x0000, 0x0000,
   0x0000, 0x0000, 0x0000, 0xfc00, 0x0001, 0x0000, 0x0000, 0xfe00, 0x0003,
   0x0000, 0x0000, 0x0300, 0x0006, 0x0000, 0x0000, 0x0180, 0x000e, 0x0000,
   0x0000, 0x00c0, 0x001e, 0x0000, 0x0000, 0x0060, 0x003a, 0x0000, 0x0000,
   0x0030, 0x007a, 0x0000, 0x0000, 0x0018, 0x00ea, 0x0000, 0x0000, 0x0018,
   0x01e9, 0x0000, 0x0000, 0x8018, 0x03a8, 0x0000, 0x0000, 0x4018, 0x0724,
   0x0000, 0x0000, 0x2018, 0x0e22, 0x0000, 0x0000, 0x1018, 0x1c11, 0x0000,
   0x0000, 0x8818, 0x3808, 0x0000, 0x0000, 0x47f0, 0x7004, 0x0000, 0x0000,
   0x20e0, 0xe002, 0x0000, 0x0000, 0x1fc0, 0xc001, 0x0001, 0x0000, 0x8380,
   0x8000, 0x0003, 0x0000, 0x7f00, 0x0000, 0x0007, 0x0000, 0x0e00, 0x0000,
   0x000e, 0x0000, 0x1c00, 0x0000, 0x001c, 0x0000, 0x3800, 0x0000, 0x0038,
   0x0000, 0x7000, 0x0000, 0x0070, 0x0000, 0xe000, 0x0000, 0x00e0, 0x0000,
   0xc000, 0x0001, 0x01c0, 0x0000, 0x8000, 0x0003, 0x0380, 0x0000, 0x0000,
   0x0007, 0x0700, 0x0000, 0x0000, 0x000e, 0x0e00, 0x0000, 0x0000, 0x001c,
   0x1c00, 0x0000, 0x0000, 0x0038, 0x3800, 0x0000, 0x0000, 0x0070, 0x7000,
   0x0000, 0x0000, 0x00e0, 0xe000, 0x0000, 0x0000, 0x01c0, 0xc000, 0x0001,
   0x0000, 0x0380, 0x8000, 0x0003, 0x0000, 0x0700, 0x0000, 0x0007, 0x0000,
   0x0e00, 0x0000, 0x000e, 0x0000, 0x1c00, 0x0000, 0x001c, 0x0000, 0x3800,
   0x0000, 0x0038, 0x0000, 0x7000, 0x0000, 0x0070, 0x0000, 0xe000, 0x0000,
   0x0060, 0x0000, 0xc000, 0x0001, 0x00c0, 0x0000, 0x8000, 0x0003, 0x00fc,
   0x0000, 0x0000, 0x0007, 0x0104, 0x0000, 0x0000, 0x000e, 0x0104, 0x0000,
   0x0000, 0x001c, 0x0104, 0x0000, 0x0000, 0x0038, 0x0104, 0x0000, 0x0000,
   0x0070, 0x0204, 0x0000, 0x0000, 0xf0e0, 0x0207, 0x0000, 0x0000, 0x11c0,
   0x0200, 0x0000, 0x0000, 0x1380, 0x0400, 0x0000, 0x0000, 0x1700, 0x0400,
   0x0000, 0x0000, 0x1e00, 0x0400, 0x0000, 0x0000, 0x1800, 0x0700, 0x0000,
   0x0000, 0xe000, 0x0781, 0x0000, 0x0000, 0x0000, 0x078e, 0x0000, 0x0000,
   0x0000, 0x07f0, 0x0000, 0x0000, 0x0000, 0x0000, 0x0000, 0x0000, 0x0000,
   0x0000, 0x0000, 0x0000, 0x0000, 0x0000, 0x0000, 0x0000, 0x0000, 0x0000,
   0x0000, 0x0000, 0x0000, 0x0000 };
